<svg width="40" height="40" viewBox="0 0 40 40" fill="none" xmlns="http://www.w3.org/2000/svg">
<path d="M15.2247 34.6222V29.526C15.2247 28.2251 16.287 27.1705 17.5974 27.1705H22.3877C23.017 27.1705 23.6205 27.4187 24.0655 27.8604C24.5105 28.3021 24.7605 28.9013 24.7605 29.526V34.6222C24.7565 35.1631 24.9701 35.6831 25.354 36.0669C25.7378 36.4508 26.2601 36.6666 26.8049 36.6666H30.0731C31.5994 36.6706 33.0646 36.0714 34.1453 35.0013C35.226 33.9313 35.8334 32.4783 35.8334 30.963V16.4447C35.8333 15.2207 35.2868 14.0597 34.341 13.2744L23.2234 4.45976C21.2895 2.91425 18.5185 2.96415 16.6423 4.57828L5.77837 13.2744C4.78792 14.0366 4.19594 15.201 4.16669 16.4447V30.9482C4.16669 34.1064 6.74566 36.6666 9.92698 36.6666H13.1205C14.2521 36.6667 15.1717 35.7603 15.1799 34.637L15.2247 34.6222Z" fill="#0B0E14"/>
</svg>
