<svg width="40" height="40" viewBox="0 0 40 40" fill="none" xmlns="http://www.w3.org/2000/svg">
<path d="M15.262 34.619V29.5078C15.262 28.2078 16.3219 27.1514 17.635 27.1427H22.4452C23.7646 27.1427 24.8342 28.2016 24.8342 29.5078V29.5078V34.6349C24.8339 35.7387 25.7238 36.6408 26.8384 36.6667H30.0452C33.2419 36.6667 35.8334 34.1012 35.8334 30.9364V30.9364V16.3964C35.8163 15.1514 35.2258 13.9823 34.23 13.2218L23.2629 4.47554C21.3416 2.95265 18.6104 2.95265 16.689 4.47554L5.77006 13.2376C4.77045 13.9951 4.179 15.1662 4.16669 16.4123V30.9364C4.16669 34.1012 6.75815 36.6667 9.95487 36.6667H13.1616C14.3039 36.6667 15.23 35.7499 15.23 34.619V34.619" stroke="black" stroke-width="2" stroke-linecap="round" stroke-linejoin="round"/>
</svg>
