<svg width="32" height="32" viewBox="0 0 32 32" fill="none" xmlns="http://www.w3.org/2000/svg">
<path d="M15.512 10.5658C16.8412 12.6625 18.631 14.44 20.7522 15.7562L11.2873 25.222C10.8624 25.647 10.65 25.8596 10.3889 25.9994C10.1278 26.1391 9.83276 26.1979 9.2434 26.3158L4.64672 27.2357C4.31468 27.3021 4.14853 27.3349 4.05395 27.2406C3.95934 27.146 3.99231 26.9794 4.05883 26.6468L4.97777 22.0501C5.09565 21.4608 5.15543 21.1657 5.29516 20.9046C5.4349 20.6438 5.64772 20.431 6.0725 20.0062L15.512 10.5658ZM21.9221 4.75522C22.0844 4.73524 22.2491 4.73524 22.4114 4.75522C23.0944 4.83945 23.6546 5.39982 24.7746 6.51987C25.8947 7.63997 26.4552 8.20006 26.5393 8.88315C26.5593 9.04527 26.5592 9.20931 26.5393 9.37143C26.4552 10.0546 25.8949 10.6155 24.7746 11.7357L22.2112 14.2982C20.0387 13.0462 18.2349 11.2551 16.967 9.11069L19.5588 6.51987C20.6789 5.39975 21.2391 4.8394 21.9221 4.75522Z" fill="black"/>
</svg>
