<svg width="32" height="32" viewBox="0 0 32 32" fill="none" xmlns="http://www.w3.org/2000/svg">
<path d="M26.0784 13.0393L26.0784 11.7353C26.0784 10.5227 26.0784 9.91642 25.9451 9.41898C25.5834 8.06906 24.529 7.01465 23.1791 6.65294C22.6817 6.51965 22.0754 6.51965 20.8627 6.51965" stroke="#222222" stroke-width="2" stroke-linejoin="round"/>
<path d="M26.0784 18.2549L26.0784 19.5588C26.0784 20.7714 26.0784 21.3777 25.9451 21.8752C25.5834 23.2251 24.529 24.2795 23.1791 24.6412C22.6817 24.7745 22.0754 24.7745 20.8627 24.7745" stroke="#222222" stroke-width="2" stroke-linejoin="round"/>
<path d="M13.0392 24.7745L11.7353 24.7745C9.29796 24.7745 8.0793 24.7745 7.17157 24.2504C6.5769 23.9071 6.08309 23.4133 5.73976 22.8186C5.21569 21.9109 5.21569 20.6922 5.21569 18.2549" stroke="#222222" stroke-width="2" stroke-linejoin="round"/>
<path d="M13.0392 6.51965L11.7353 6.51965C9.29796 6.51965 8.0793 6.51965 7.17157 7.04373C6.5769 7.38706 6.08309 7.88087 5.73976 8.47554C5.21569 9.38326 5.21569 10.6019 5.21569 13.0393" stroke="#222222" stroke-width="2" stroke-linejoin="round"/>
<path d="M13.0392 27.3823L13.0392 3.91174" stroke="#222222" stroke-width="2" stroke-linecap="round" stroke-linejoin="round"/>
</svg>
