<svg width="40" height="40" viewBox="0 0 40 40" fill="none" xmlns="http://www.w3.org/2000/svg">
<path d="M5 12.6666C5 9.8382 5 8.42399 5.87868 7.54531C6.75736 6.66663 8.17157 6.66663 11 6.66663H29C31.8284 6.66663 33.2426 6.66663 34.1213 7.54531C35 8.42399 35 9.8382 35 12.6666V15.4166C35 15.649 35 15.7651 34.9808 15.8617C34.9019 16.2584 34.5918 16.5685 34.1951 16.6474C34.0985 16.6666 33.9823 16.6666 33.75 16.6666H33.3333C33.0238 16.6666 32.869 16.6666 32.7385 16.678C31.2882 16.8049 30.1383 17.9548 30.0114 19.4052C30 19.5356 30 19.6904 30 20C30 20.3095 30 20.4643 30.0114 20.5948C30.1383 22.0451 31.2882 23.195 32.7385 23.3219C32.869 23.3333 33.0238 23.3333 33.3333 23.3333H33.75C33.9823 23.3333 34.0985 23.3333 34.1951 23.3525C34.5918 23.4314 34.9019 23.7415 34.9808 24.1382C35 24.2348 35 24.351 35 24.5833V27.3333C35 30.1617 35 31.5759 34.1213 32.4546C33.2426 33.3333 31.8284 33.3333 29 33.3333H11C8.17157 33.3333 6.75736 33.3333 5.87868 32.4546C5 31.5759 5 30.1617 5 27.3333V24.5833C5 24.351 5 24.2348 5.01921 24.1382C5.09812 23.7415 5.40822 23.4314 5.80491 23.3525C5.90151 23.3333 6.01767 23.3333 6.25 23.3333H6.66667C6.97621 23.3333 7.13098 23.3333 7.26147 23.3219C8.71181 23.195 9.8617 22.0451 9.98858 20.5948C10 20.4643 10 20.3095 10 20C10 19.6904 10 19.5356 9.98858 19.4052C9.8617 17.9548 8.71181 16.8049 7.26147 16.678C7.13098 16.6666 6.97621 16.6666 6.66667 16.6666H6.25C6.01767 16.6666 5.90151 16.6666 5.80491 16.6474C5.40822 16.5685 5.09812 16.2584 5.01921 15.8617C5 15.7651 5 15.649 5 15.4166V12.6666Z" stroke="#222222" stroke-width="2"/>
<path d="M19.2613 17.8142C19.5415 17.0892 19.6816 16.7268 19.9092 16.6765C19.9691 16.6633 20.031 16.6633 20.0908 16.6765C20.3184 16.7268 20.4585 17.0892 20.7388 17.8142C20.8981 18.2265 20.9778 18.4326 21.1269 18.5728C21.1687 18.6121 21.2141 18.6472 21.2624 18.6774C21.4347 18.7852 21.6498 18.8052 22.0801 18.8452C22.8083 18.9128 23.1725 18.9467 23.2837 19.1622C23.3067 19.2068 23.3224 19.2551 23.33 19.3051C23.3669 19.5465 23.0992 19.7992 22.5638 20.3047L22.4151 20.4451C22.1648 20.6814 22.0396 20.7996 21.9672 20.9471C21.9238 21.0355 21.8947 21.1308 21.8811 21.2291C21.8583 21.3929 21.895 21.5643 21.9683 21.9071L21.9945 22.0296C22.1259 22.6445 22.1916 22.9519 22.1096 23.103C22.0359 23.2387 21.9001 23.3256 21.7502 23.333C21.5832 23.3413 21.348 23.1424 20.8776 22.7446C20.5676 22.4825 20.4126 22.3514 20.2406 22.3002C20.0834 22.2534 19.9167 22.2534 19.7594 22.3002C19.5874 22.3514 19.4324 22.4825 19.1225 22.7446C18.652 23.1424 18.4168 23.3413 18.2499 23.333C18.0999 23.3256 17.9642 23.2387 17.8905 23.103C17.8084 22.9519 17.8741 22.6445 18.0056 22.0296L18.0318 21.9071C18.1051 21.5643 18.1417 21.3929 18.119 21.2291C18.1053 21.1308 18.0762 21.0355 18.0328 20.9471C17.9604 20.7996 17.8353 20.6814 17.5849 20.4451L17.4363 20.3047C16.9009 19.7992 16.6332 19.5465 16.67 19.3051C16.6777 19.2551 16.6933 19.2068 16.7164 19.1622C16.8276 18.9467 17.1917 18.9128 17.92 18.8452C18.3502 18.8052 18.5653 18.7852 18.7376 18.6774C18.786 18.6472 18.8314 18.6121 18.8732 18.5728C19.0223 18.4326 19.1019 18.2265 19.2613 17.8142Z" fill="#222222" stroke="#222222"/>
</svg>
