<svg width="40" height="40" viewBox="0 0 40 40" fill="none" xmlns="http://www.w3.org/2000/svg">
<path fill-rule="evenodd" clip-rule="evenodd" d="M4.21199 7.54537C3.33331 8.42405 3.33331 9.83826 3.33331 12.6667V15.4167C3.33331 15.649 3.33331 15.7652 3.35253 15.8618C3.43143 16.2585 3.74153 16.5686 4.13822 16.6475C4.23482 16.6667 4.35099 16.6667 4.58331 16.6667H4.99998C5.30952 16.6667 5.4643 16.6667 5.59478 16.6781C7.04512 16.805 8.19501 17.9549 8.3219 19.4052C8.33331 19.5357 8.33331 19.6905 8.33331 20C8.33331 20.3096 8.33331 20.4643 8.3219 20.5948C8.19501 22.0452 7.04512 23.195 5.59478 23.3219C5.46432 23.3334 5.30957 23.3334 5.00013 23.3334H4.99998H4.58331C4.35099 23.3334 4.23482 23.3334 4.13822 23.3526C3.74153 23.4315 3.43143 23.7416 3.35253 24.1383C3.33331 24.2349 3.33331 24.351 3.33331 24.5834V27.3334C3.33331 30.1618 3.33331 31.576 4.21199 32.4547C5.09067 33.3334 6.50489 33.3334 9.33331 33.3334H30.6666C33.4951 33.3334 34.9093 33.3334 35.788 32.4547C36.6666 31.576 36.6666 30.1618 36.6666 27.3334V24.5834C36.6666 24.351 36.6666 24.2349 36.6474 24.1383C36.5685 23.7416 36.2584 23.4315 35.8617 23.3526C35.7651 23.3334 35.649 23.3334 35.4166 23.3334H35C34.6904 23.3334 34.5357 23.3334 34.4052 23.3219C32.9548 23.195 31.8049 22.0452 31.6781 20.5948C31.6666 20.4643 31.6666 20.3096 31.6666 20C31.6666 19.6905 31.6666 19.5357 31.6781 19.4052C31.8049 17.9549 32.9548 16.805 34.4052 16.6781C34.5357 16.6667 34.6904 16.6667 35 16.6667H35.4166C35.649 16.6667 35.7651 16.6667 35.8617 16.6475C36.2584 16.5686 36.5685 16.2585 36.6474 15.8618C36.6666 15.7652 36.6666 15.649 36.6666 15.4167V12.6667C36.6666 9.83826 36.6666 8.42405 35.788 7.54537C34.9093 6.66669 33.4951 6.66669 30.6666 6.66669H9.33331C6.50489 6.66669 5.09067 6.66669 4.21199 7.54537ZM19.9092 16.6766C19.6816 16.7268 19.5415 17.0893 19.2612 17.8143C19.1019 18.2265 19.0222 18.4327 18.8731 18.5729C18.8313 18.6122 18.7859 18.6472 18.7376 18.6775C18.5653 18.7852 18.3502 18.8052 17.92 18.8452H17.9199C17.1917 18.9129 16.8275 18.9467 16.7163 19.1622C16.6933 19.2068 16.6776 19.2552 16.67 19.3052C16.6331 19.5466 16.9008 19.7993 17.4362 20.3048L17.5849 20.4452C17.8352 20.6815 17.9604 20.7997 18.0328 20.9471C18.0762 21.0356 18.1053 21.1309 18.1189 21.2291C18.1417 21.3929 18.105 21.5644 18.0317 21.9072L18.0055 22.0297C17.8741 22.6445 17.8084 22.9519 17.8904 23.103C17.9641 23.2388 18.0999 23.3257 18.2498 23.3331C18.4168 23.3414 18.652 23.1425 19.1224 22.7446C19.4324 22.4825 19.5874 22.3515 19.7594 22.3003C19.9166 22.2535 20.0833 22.2535 20.2406 22.3003C20.4126 22.3515 20.5676 22.4825 20.8775 22.7446C21.348 23.1425 21.5832 23.3414 21.7501 23.3331C21.9001 23.3257 22.0358 23.2388 22.1095 23.103C22.1916 22.9519 22.1259 22.6445 21.9944 22.0297L21.9682 21.9072C21.8949 21.5644 21.8583 21.3929 21.881 21.2291C21.8947 21.1309 21.9238 21.0356 21.9672 20.9471C22.0396 20.7997 22.1647 20.6815 22.4151 20.4452L22.5637 20.3048C23.0991 19.7993 23.3668 19.5466 23.33 19.3052C23.3223 19.2552 23.3067 19.2068 23.2836 19.1622C23.1724 18.9467 22.8083 18.9129 22.08 18.8452C21.6498 18.8052 21.4347 18.7852 21.2624 18.6775C21.214 18.6472 21.1686 18.6122 21.1268 18.5729C20.9777 18.4327 20.8981 18.2265 20.7387 17.8143C20.4585 17.0893 20.3184 16.7268 20.0908 16.6766C20.0309 16.6634 19.969 16.6634 19.9092 16.6766Z" fill="#222222"/>
</svg>
