<svg width="26" height="26" viewBox="0 0 26 26" fill="none" xmlns="http://www.w3.org/2000/svg">
<path d="M21.9777 9.42273C21.8914 9.42273 21.8482 9.42335 21.8116 9.42468C20.7645 9.46305 19.9242 10.3033 19.8859 11.3505C19.8845 11.3869 19.8849 11.4304 19.8849 11.5165V15.9872C19.8849 18.8156 19.8846 20.2296 19.006 21.1083C18.1273 21.987 16.7133 21.9872 13.8849 21.9872H11.2325C8.40436 21.9872 6.99009 21.9869 6.11145 21.1083C5.23298 20.2296 5.23254 18.8154 5.23254 15.9872V11.5165C5.23254 11.4304 5.23289 11.3869 5.23157 11.3505C5.19325 10.3033 4.35294 9.463 3.30579 9.42468C3.26928 9.42335 3.22605 9.42273 3.13977 9.42273V6.2821H21.9777V9.42273ZM9.9425 10.5175C9.39022 10.5175 8.9425 10.9652 8.9425 11.5175V16.7528C8.94284 17.3048 9.39043 17.7528 9.9425 17.7528C10.4946 17.7528 10.9422 17.3048 10.9425 16.7528V11.5175C10.9425 10.9652 10.4948 10.5175 9.9425 10.5175ZM15.1749 10.5175C14.6228 10.5177 14.1749 10.9653 14.1749 11.5175V16.7528C14.1753 17.3047 14.623 17.7526 15.1749 17.7528C15.727 17.7528 16.1746 17.3048 16.1749 16.7528V11.5175C16.1749 10.9652 15.7272 10.5175 15.1749 10.5175Z" fill="black"/>
<path d="M10.537 3.529C10.6563 3.41769 10.9191 3.31933 11.2846 3.24917C11.6502 3.17902 12.0981 3.14099 12.5588 3.14099C13.0196 3.14099 13.4675 3.17902 13.8331 3.24917C14.1986 3.31933 14.4614 3.41769 14.5807 3.529" stroke="black" stroke-width="2" stroke-linecap="round"/>
</svg>
