<svg width="40" height="40" viewBox="0 0 40 40" fill="none" xmlns="http://www.w3.org/2000/svg">
<path fill-rule="evenodd" clip-rule="evenodd" d="M30.667 5C33.4952 5 34.9094 5.00026 35.7881 5.87891C36.6666 6.7576 36.667 8.17175 36.667 11V18.333H26.667C23.9057 18.333 21.6672 20.5717 21.667 23.333C21.667 26.0944 23.9056 28.333 26.667 28.333H36.667V29C36.667 31.8283 36.6666 33.2424 35.7881 34.1211C34.9094 34.9997 33.4952 35 30.667 35H9.33301C6.5048 35 5.09056 34.9997 4.21191 34.1211C3.3334 33.2424 3.33301 31.8283 3.33301 29V11C3.33301 8.17175 3.3334 6.7576 4.21191 5.87891C5.09056 5.00026 6.5048 5 9.33301 5H30.667ZM11.667 12.333C11.1148 12.333 10.6672 12.7809 10.667 13.333C10.667 13.8853 11.1147 14.333 11.667 14.333H16.667C17.2191 14.3328 17.667 13.8852 17.667 13.333C17.6668 12.781 17.219 12.3332 16.667 12.333H11.667Z" fill="#222222"/>
<path d="M28.3333 23.3333H26.6667" stroke="#222222" stroke-width="2" stroke-linecap="round"/>
</svg>
