<svg width="40" height="40" viewBox="0 0 40 40" fill="none" xmlns="http://www.w3.org/2000/svg">
<path d="M23.75 6.66663H16.25C10.9467 6.66663 8.29505 6.66663 6.64752 8.3403C5 10.014 5 12.7077 5 18.0952V21.9047C5 27.2922 5 29.9859 6.64752 31.6596C8.29505 33.3333 10.9467 33.3333 16.25 33.3333H23.75C29.0533 33.3333 31.705 33.3333 33.3525 31.6596C35 29.9859 35 27.2922 35 21.9047V18.0952C35 12.7077 35 10.014 33.3525 8.3403C31.705 6.66663 29.0533 6.66663 23.75 6.66663Z" stroke="#33363F" stroke-width="2"/>
<path d="M11.6667 13.3334H16.6667" stroke="#33363F" stroke-width="2" stroke-linecap="round"/>
<path d="M31.6667 26.6666H28.3333C27.0872 26.6666 26.4641 26.6666 26 26.3987C25.696 26.2231 25.4435 25.9707 25.268 25.6666C25 25.2025 25 24.5794 25 23.3333C25 22.0871 25 21.4641 25.268 21C25.4435 20.6959 25.696 20.4434 26 20.2679C26.4641 20 27.0872 20 28.3333 20H31.6667C32.9128 20 33.5359 20 34 20.2679C34.304 20.4434 34.5565 20.6959 34.7321 21C35 21.4641 35 22.0871 35 23.3333C35 24.5794 35 25.2025 34.7321 25.6666C34.5565 25.9707 34.304 26.2231 34 26.3987C33.5359 26.6666 32.9128 26.6666 31.6667 26.6666Z" stroke="#33363F" stroke-width="2"/>
</svg>
